<?xml version="1.0" encoding="iso-8859-1"?>
<!-- Generator: Adobe Illustrator 18.0.0, SVG Export Plug-In . SVG Version: 6.00 Build 0)  -->
<!DOCTYPE svg PUBLIC "-//W3C//DTD SVG 1.1//EN" "http://www.w3.org/Graphics/SVG/1.1/DTD/svg11.dtd">
<svg xmlns="http://www.w3.org/2000/svg" xmlns:xlink="http://www.w3.org/1999/xlink" version="1.1" id="Capa_1" x="0px" y="0px" viewBox="0 0 212.673 212.673" style="enable-background:new 0 0 212.673 212.673;" xml:space="preserve" width="512px" height="512px">
<g>
	<path d="M50.533,131.305c12.69,11.233,29.408,18.059,47.721,19.611v46.757H77.478c-4.143,0-7.5,3.357-7.5,7.5   c0,4.143,3.357,7.5,7.5,7.5h28.275h28.277c4.143,0,7.5-3.357,7.5-7.5c0-4.143-3.357-7.5-7.5-7.5h-20.777v-46.68   c18.768-1.357,35.928-8.218,48.886-19.688c15.209-13.463,23.585-32.449,23.585-53.461c0-23.211-10.001-52.509-25.479-74.642   C158.842,1.195,156.547,0,154.099,0H58.572c-2.448,0-4.743,1.195-6.146,3.202c-15.477,22.131-25.477,51.43-25.477,74.642   C26.949,98.855,35.325,117.842,50.533,131.305z M62.56,15h87.551c10.84,16.678,18.455,37.673,20.22,55.344H42.342   C44.107,52.672,51.722,31.677,62.56,15z M170.249,85.344c-3.694,29.912-29.424,50.914-63.914,50.914   c-34.489,0-60.218-21.002-63.912-50.914H170.249z" fill="#000000"/>
</g>
<g>
</g>
<g>
</g>
<g>
</g>
<g>
</g>
<g>
</g>
<g>
</g>
<g>
</g>
<g>
</g>
<g>
</g>
<g>
</g>
<g>
</g>
<g>
</g>
<g>
</g>
<g>
</g>
<g>
</g>
</svg>
