<?xml version="1.0" encoding="iso-8859-1"?>
<!-- Generator: Adobe Illustrator 17.1.0, SVG Export Plug-In . SVG Version: 6.00 Build 0)  -->
<!DOCTYPE svg PUBLIC "-//W3C//DTD SVG 1.1//EN" "http://www.w3.org/Graphics/SVG/1.1/DTD/svg11.dtd">
<svg xmlns="http://www.w3.org/2000/svg" xmlns:xlink="http://www.w3.org/1999/xlink" version="1.1" id="Capa_1" x="0px" y="0px" viewBox="0 0 387.867 387.867" style="enable-background:new 0 0 387.867 387.867;" xml:space="preserve" width="512px" height="512px">
<path d="M307.529,371.247l-74.049-27.351c-8.398-3.103-15.493-13.286-15.493-22.239v-77.322  c54.34-11.16,95.332-59.358,95.332-116.95V24.648c0-9.529-7.632-24.648-28.109-24.648H101.896C84.133,0,74.548,12.699,74.548,24.648  v102.737c0,57.592,40.992,105.79,95.332,116.95v77.322c0,8.953-7.095,19.137-15.493,22.239l-74.049,27.351  c-3.786,1.398-11.665,4.308-10.565,10.464c1.101,6.156,9.5,6.156,13.536,6.156h221.249c4.036,0,12.436,0,13.536-6.156  C319.194,375.555,311.315,372.646,307.529,371.247z M283.319,30v34.3H104.548V30H283.319z" fill="#000000"/>
<g>
</g>
<g>
</g>
<g>
</g>
<g>
</g>
<g>
</g>
<g>
</g>
<g>
</g>
<g>
</g>
<g>
</g>
<g>
</g>
<g>
</g>
<g>
</g>
<g>
</g>
<g>
</g>
<g>
</g>
</svg>
